<?xml version="1.0" encoding="utf-8"?>
<!-- Generator: Adobe Illustrator 24.3.0, SVG Export Plug-In . SVG Version: 6.00 Build 0)  -->
<svg version="1.1" id="Calque_1" xmlns="http://www.w3.org/2000/svg" xmlns:xlink="http://www.w3.org/1999/xlink" x="0px" y="0px"
	 viewBox="0 0 524.2 294" style="enable-background:new 0 0 524.2 294;" xml:space="preserve">
<style type="text/css">
	.st0{fill:#454545;}
	.st1{fill:#525252;}
	.st2{fill:#4B4B4B;}
	.st3{fill:#4A4A4A;}
	.st4{fill:#484848;}
	.st5{fill:#4F4F4F;}
	.st6{fill:#4D4D4D;}
	.st7{fill:#4C4C4C;}
	.st8{fill:#494949;}
	.st9{fill:#FFFFFF;}
	.st10{fill:#FDFDFD;}
	.st11{fill:#FCFCFC;}
	.st12{fill:#FAFAFA;}
	.st13{fill:#FBFBFB;}
	.st14{fill:#F9F9F9;}
</style>
<path class="st0" d="M217.5,193.1c-0.1-1-0.1-2.1,0-3.1c1-0.1,1.9-0.2,2.9-0.3c0.9-0.1,1.8-0.3,2.7-0.5c4-0.9,7.1-3.9,8.3-7.8
	c0.9-2.7,1.4-5.5,1.5-8.3c0.1-1.4,0.1-2.7,0.1-4.1c0-41.7,0-83.3,0-125c0.1-3-0.1-6-0.7-9c-0.3-1.4-0.7-2.8-1.2-4.2
	c-1.3-3.7-4.6-6.4-8.5-7.1c-1.3-0.3-2.7-0.4-4-0.6c-0.3,0-0.6-0.1-1-0.1c-0.2-1-0.2-2,0-3c0.6,0,1.1,0,1.7,0h31.7
	c10.7,0,21.4,0,32.1,0c4.8,0,9.6,0.4,14.4,1.4c7,1.4,13.6,4.5,19.2,9c6.9,5.5,11.5,13.3,13.1,21.9c0.8,4.3,1,8.7,0.5,13.1
	c-0.8,8.2-4.4,15.9-10.2,21.8c-4.2,4.2-9.2,7.6-14.8,9.9c-2.1,0.9-4.2,1.7-6.4,2.4c-0.2,0-0.4,0.1-0.5,0.2c0.1,0.4,0.5,0.4,0.7,0.4
	c3.7,0.7,7.4,1.7,11,3c1.9,0.7,3.7,1.5,5.5,2.3c5.2,2.5,10,5.9,14.1,10c5.2,5.1,8.8,11.6,10.6,18.7c1.2,4.9,1.6,10,1.2,15
	c-0.3,4.1-1,8.1-2.2,12c-2.3,7.3-6.5,13.8-12.1,18.9c-5.1,4.5-11.1,7.9-17.6,10c-5.4,1.8-11,2.9-16.7,3.1c-2.3,0.1-4.6,0.2-6.9,0.2
	c-22.2,0-44.4,0-66.6,0C218.7,193.3,218.1,193.2,217.5,193.1z M255,186.1h1.6l17-0.1c4.9-0.1,9.8-0.1,14.6-0.2
	c3.6-0.1,7.2-0.9,10.5-2.3c4.9-2.1,9-5.6,12.1-9.9c2.8-3.9,4.8-8.2,6-12.9c1.7-6.8,2.3-13.8,1.6-20.8c-0.3-3.4-1-6.7-2.2-9.8
	c-2.6-7.6-7.8-14.1-14.5-18.5c-3.4-2.1-7-3.8-10.8-4.9c-4.3-1.3-8.7-2-13.2-2.1c-7.3-0.1-14.7,0-22,0c-0.3,0-0.6,0.1-0.9,0.2v80.6
	C254.9,185.5,255,185.7,255,186.1z M254.9,98.3h1.6c6.8,0,13.6,0,20.4,0c2.7,0,5.4-0.3,8.1-0.9c3.1-0.7,6.1-2,8.9-3.7
	c3.2-2.1,5.9-4.8,8-7.9c1.5-2.2,2.8-4.5,3.8-7c1.5-3.9,2.4-8.1,2.8-12.3c0.5-5.5,0.3-11-0.7-16.3c-0.7-3.7-2-7.3-3.9-10.6
	c-1.7-2.9-3.9-5.5-6.5-7.7c-3.7-3-8.4-4.6-13.1-4.5c-9.4,0-18.9,0-28.3,0c-0.3,0-0.6,0.1-0.8,0.1C254.7,29.2,254.7,97,254.9,98.3
	L254.9,98.3z"/>
<path class="st0" d="M420.6,140.7h1.8c0.4,1.3,0.7,2.5,1,3.8c1,3.5,1.9,7.1,3.1,10.5c2.3,6.4,5.7,12.4,10,17.6c2.6,3.2,5.7,6,9,8.4
	c3.1,2.3,6.7,3.9,10.4,4.9c1,0.2,2,0.4,3,0.6c3.7,0.6,7.5,0.8,11.3,0.5c4.9-0.2,9.7-1.8,13.9-4.4c5.7-3.6,9.9-9.2,11.7-15.8
	c1.2-4.3,1.6-8.7,1.2-13.1c-0.2-2.2-0.8-4.4-1.7-6.4c-1.3-3.2-3.1-6.1-5.3-8.8c-3.6-4.4-7.9-8.2-12.7-11.3c-6-4-12.5-7.2-19.2-9.6
	c-6.1-2.2-11.8-5.2-16.9-9.1c-3.5-2.7-6.8-5.7-9.6-9.1c-4.7-5.6-7.9-12.3-9.5-19.4c-0.6-2.8-1-5.8-1-8.7c0-4.4,0.3-8.7,1.1-13.1
	c0.9-5.5,2.7-10.7,5.1-15.7c2.5-5.1,5.9-9.7,10.1-13.5c6.4-5.6,14.4-9.1,22.8-10c7.3-0.8,14.6-0.3,21.7,1.6
	c6.3,1.6,12.3,4.1,17.9,7.4c1.5,0.9,2.9,1.9,4.5,2.9v33c0,2.8,0,5.5,0,8.2c-0.7,0.3-1.2-0.1-1.8-0.1c-0.2-0.5-0.4-1-0.5-1.6
	c-1.8-6.2-3.7-12.3-5.5-18.5c-1-3.3-2.2-6.6-3.8-9.7c-1.7-3.2-3.8-6.1-6.2-8.6c-1.3-1.4-2.8-2.6-4.3-3.7c-1.7-1.1-3.5-2-5.4-2.7
	c-2.4-0.8-4.9-1.3-7.4-1.4c-1-0.2-2.1-0.3-3.1-0.3c-6.8-0.1-13.1,1.6-18.4,6c-3.8,3.2-6.8,7.3-8.6,12c-1.3,3.3-2.1,6.7-2.5,10.2
	c-0.2,1.8-0.2,3.6-0.3,5.4c0,2.8,0.5,5.5,1.7,8c1.4,3,3.2,5.9,5.4,8.4c3.8,4.3,8.3,8,13.2,10.9c6,3.6,12.4,6.7,19,9
	c6.3,2.2,12.1,5.5,17.2,9.7c6.4,5.2,11.6,11.7,15.1,19.1c2.5,5.1,4.1,10.6,4.6,16.3c0.3,3.6,0.3,7.1-0.1,10.7
	c-0.3,3.3-0.8,6.5-1.7,9.6c-1.5,5.7-4,11.1-7.4,15.9c-3.9,5.5-9.1,9.9-15.2,12.8c-5.2,2.5-10.7,4-16.5,4.5
	c-4.9,0.3-9.9,0.2-14.8-0.3c-5.4-0.5-10.7-1.4-15.9-2.8c-6.6-1.7-12.9-4.3-18.7-7.8c-0.7-0.4-1.3-0.9-2-1.3
	C420.5,180.8,420.5,142.3,420.6,140.7z"/>
<path class="st0" d="M138.8,34.2v39l-1.8,0.1c-0.1-0.3-0.3-0.6-0.4-0.9c-1.1-3.9-2.1-7.9-3.4-11.7c-2.1-6.4-5.2-12.3-9.2-17.7
	c-3-4-6.7-7.5-10.8-10.5c-3.4-2.4-7.2-4.1-11.2-5.1c-3.1-0.7-6.3-1.1-9.5-1.2c-2.4-0.1-4.8-0.3-7.2-0.3c-7.4-0.2-14.8,1.7-21.1,5.6
	c-4.5,2.8-8.6,6.3-12,10.5c-5.4,6.8-9.5,14.5-12.1,22.8c-1.9,5.6-3.3,11.3-4.3,17.1c-1.6,9.7-2.2,19.5-1.9,29.3
	c0.1,6.1,0.6,12.1,1.6,18.2c1.3,8.9,3.7,17.6,7.2,25.9c2.7,6.3,6.3,12.2,10.8,17.3c2.7,3,5.8,5.7,9.2,8c4,2.7,8.5,4.6,13.2,5.7
	c2.7,0.6,5.4,0.9,8.1,1c4,0.2,8-0.1,12-0.8c4.9-0.9,9.7-2.6,14-5.2c2.1-1.2,4.1-2.6,6-4.1c4.2-3.4,7.9-7.4,10.8-11.9
	c3.5-5.1,6-10.8,7.6-16.8c0.7-2.6,1.4-5.1,2.1-7.7c0.1-0.3,0.2-0.6,0.3-0.9c0.5-0.2,1.1-0.2,1.7-0.1c0.2,0.5,0.2,1.1,0.1,1.6
	c0,9.4,0,18.8,0,28.2v9.2c-1.9,1.4-3.9,2.7-6,3.9c-5.3,2.9-11,5.2-16.8,6.9c-5.4,1.6-10.9,2.8-16.5,3.6c-6.3,0.9-12.7,1.2-19.1,0.9
	c-5.9-0.2-11.7-1.2-17.3-2.9c-6.8-2.1-13.3-5.2-19.2-9.2c-3.9-2.7-7.5-5.7-10.8-9.2c-5.5-5.8-10-12.5-13.4-19.8
	c-2.6-5.6-4.7-11.4-6.3-17.4c-1.2-4.8-2.1-9.6-2.6-14.5c-0.7-6.2-1-12.5-0.8-18.8c0.2-9.5,1.6-18.8,4.1-27.9
	c2.3-8.4,5.9-16.4,10.6-23.7c1.5-2.2,3.1-4.3,4.7-6.5c3.6-4.5,7.7-8.5,12.3-11.9c4.6-3.4,9.5-6.2,14.8-8.4c5.8-2.4,12-4,18.3-4.7
	c4.6-0.6,9.2-0.7,13.8-0.5c3.9,0.2,7.8,0.6,11.7,1.1c4.7,0.7,9.4,1.6,14,2.9c5.9,1.6,11.6,3.8,17,6.6c2.3,1.2,4.5,2.5,6.5,4
	C138.2,33.8,138.5,34,138.8,34.2z"/>
<path class="st1" d="M513.6,217.6c0.2,0.8,0.2,1.6,0,2.4c-0.2,0-0.4,0.1-0.6,0.1H10.4c-0.2,0-0.3-0.1-0.5-0.1
	c-0.2-0.8-0.2-1.6,0.1-2.3c0.2-0.1,0.4-0.1,0.6-0.1h502.6C513.3,217.5,513.5,217.5,513.6,217.6z"/>
<path class="st2" d="M292.3,244.3h5c0.4,0.5,0.7,1,0.8,1.6c2.3,5.7,4.6,11.4,6.8,17.1c0.2,0.4,0.4,0.8,0.6,1.3
	c0.4-0.5,0.6-1.1,0.8-1.6c0.2-0.6,0.4-1.1,0.6-1.7l0.6-1.6c0.2-0.6,0.4-1.1,0.6-1.7s0.4-1.1,0.6-1.7c0.2-0.6,0.4-1.1,0.6-1.7
	s0.4-1,0.6-1.6s0.4-1.1,0.6-1.7s0.4-1.1,0.6-1.7s0.4-1.1,0.6-1.7s0.3-1.1,0.5-1.6s0.4-1.1,0.7-1.8c1.9-0.1,3.7,0,5.6,0.1
	c0,0,0.1,0.2,0.2,0.3l-1.1,0.4c-0.5,0.2-0.9,0.6-1,1.1c-0.1,0.6-0.2,1.2-0.2,1.8c0.1,2.8,0.2,5.5,0.3,8.3c0.1,3.1,0.3,6.2,0.4,9.3
	c0,0.5,0,0.9,0.1,1.4c0,0.9,0.8,1.7,1.7,1.8c0.3,0,0.6,0,0.7,0.5c-0.1,0.1-0.2,0.2-0.4,0.2c-2.6,0-5.2,0-7.8,0
	c-0.1,0-0.1-0.1-0.3-0.3c0.2-0.1,0.4-0.3,0.6-0.3c1-0.1,1.7-0.9,1.7-1.8c0.1-0.4,0.1-0.8,0.1-1.2c-0.1-5.4-0.3-10.8-0.5-16.3
	c0-0.2,0-0.4,0-0.6c-0.5,0-0.5,0.4-0.6,0.6c-1.3,3.5-2.6,7-3.9,10.4l-3.3,8.8c-0.1,0.4-0.2,0.8-0.7,0.8s-0.8-0.4-0.9-0.8
	c-1.8-4.3-3.6-8.6-5.4-12.9c-0.6-1.5-1.3-3-1.9-4.6c-0.1-0.2-0.2-0.4-0.4-0.8c-0.1,0.4-0.2,0.5-0.2,0.7c0,0.1,0,0.2,0,0.3l-0.4,14
	c0,0.5,0,0.9,0.1,1.4c0.1,1,0.9,1.8,1.9,1.9c0.5,0.1,1,0,1.4,0.3c-0.1,0.1-0.1,0.3-0.1,0.3l-6.2,0.1c-0.3,0-0.6-0.1-0.9-0.1
	c0.1-0.5,0.5-0.5,0.7-0.5c0.9-0.1,1.7-0.9,1.7-1.9c0.1-0.6,0.1-1.3,0.2-2c0.2-5.7,0.4-11.5,0.6-17.2c0-0.1,0-0.3,0-0.4
	c-0.1-1.6-0.4-1.9-1.9-2.4c-0.1-0.1-0.2-0.1-0.3-0.2C292.3,244.7,292.3,244.6,292.3,244.3z"/>
<path class="st3" d="M433.3,244.4c0.2,0,0.4-0.1,0.6-0.1c3.5,0,7,0,10.5,0c1.4,0,2.7,0.3,3.9,0.9c1.8,0.8,3,2.6,3.2,4.6
	c0.2,1.9-0.7,3.8-2.3,4.8c-0.5,0.3-1,0.6-1.6,0.9c-0.2,0.1-0.4,0.2-0.7,0.4c0.5,0.1,0.9,0.3,1.4,0.4c0.8,0.3,1.6,0.7,2.4,1.2
	c4.2,2.9,2.8,8.4-0.1,10.2c-1.2,0.8-2.6,1.3-4.1,1.5c-0.6,0.1-1.2,0.1-1.8,0.1h-10.4c-0.4,0-0.8,0.1-1.1-0.2
	c0.1-0.4,0.3-0.4,0.6-0.4c1.3-0.3,1.6-0.7,1.8-2c0.1-0.5,0.1-1,0.1-1.5v-16.7c0-0.6,0-1.1-0.1-1.6c0-0.9-0.7-1.8-1.6-1.9
	c-0.3-0.1-0.5-0.2-0.8-0.3L433.3,244.4z M439.5,268.1c0.2,0,0.4,0.1,0.7,0.1c1.5,0,2.9,0,4.4,0c2.3,0.1,4.3-1.5,4.8-3.8
	c0.9-3.7-0.7-6.2-3.7-7.2c-2-0.5-4-0.6-6.1-0.3C439.3,258,439.3,265.9,439.5,268.1z M439.5,245.5c0,0.3-0.1,0.5-0.1,0.8
	c0,3,0,5.9,0,8.9c0,0,0,0.1,0.1,0.1l0.2,0.2c1.3,0,2.8,0.1,4.1,0c1.6-0.1,3-1.1,3.6-2.6c0.7-1.5,0.8-3.2,0.2-4.8
	c-0.4-1.5-1.8-2.5-3.4-2.6C442.6,245.5,441.1,245.5,439.5,245.5z"/>
<path class="st4" d="M144.1,257.6h-2.6c-0.1,0.3-0.1,0.6-0.2,0.9c0,2.5,0,5,0,7.5c0,0.2,0,0.5,0,0.8c0.1,1.3,0.5,1.7,1.8,2
	c0.2,0,0.5,0.1,0.6,0.4c-0.1,0.1-0.2,0.2-0.3,0.2c-2.7,0-5.3,0-8,0c-0.1,0-0.1-0.1-0.2-0.2c0.1-0.3,0.3-0.4,0.6-0.4
	c1.3-0.3,1.6-0.6,1.8-2c0.1-0.4,0.1-0.8,0.1-1.2c0-5.8,0-11.6,0-17.3c0-0.4-0.1-0.9-0.1-1.4c0-0.9-0.7-1.8-1.6-1.9
	c-0.2,0-0.4-0.1-0.6-0.1c-0.1,0-0.1-0.2-0.3-0.4c0.3-0.1,0.5-0.1,0.8-0.1h10.2c1.2,0,2.4,0.2,3.5,0.7c3.2,1.3,4.8,5,3.5,8.2
	c-0.6,1.4-1.7,2.6-3,3.3c-0.5,0.3-1.1,0.5-1.7,0.8c0.1,0.2,0.2,0.4,0.3,0.5c1.9,2.9,3.8,5.8,5.8,8.7c0.2,0.3,0.4,0.6,0.6,0.9
	c0.5,0.7,1,1.4,2.1,1.1l0.1,0.9c-0.8,0.1-1.5,0.1-2.3,0.1c-0.5,0-1,0-1.5-0.1c-1-0.1-1.8-0.7-2.4-1.5c-0.6-0.8-1.2-1.7-1.8-2.6
	c-1.6-2.3-3.1-4.7-4.7-7C144.4,258,144.3,257.8,144.1,257.6z M141.4,256.3c1.2,0.1,2.4,0,3.6,0.1c2,0,3.7-1.2,4.4-3.1
	c0.2-0.8,0.4-1.6,0.4-2.4c0.1-1.4-0.3-2.7-1-3.9c-0.6-1-1.7-1.6-2.9-1.6H142c-0.2,0-0.4,0.1-0.5,0.1
	C141.2,249.1,141.2,252.7,141.4,256.3z"/>
<path class="st3" d="M267.6,269.6c-1.6,0.1-3.1-0.2-4.6-0.8c-2.6-1.1-4.7-3.2-5.7-5.9c-1.6-3.9-1.6-8.3,0-12.2
	c1.2-3.2,3.9-5.5,7.2-6.3c2-0.5,4.1-0.5,6.1,0c3,0.8,5.5,2.8,6.9,5.6c1.3,2.7,1.8,5.7,1.4,8.6c-0.2,2.1-0.9,4.1-2,6
	c-1.8,2.9-4.9,4.8-8.4,4.9C268.2,269.6,267.9,269.6,267.6,269.6z M260.2,256.9c0,0.8,0,1.5,0.1,2.3c0.2,2.1,0.8,4.2,1.8,6
	c0.7,1.4,2,2.5,3.5,3c2.8,1,5.8-0.2,7.2-2.8c0.6-1,1-2.1,1.3-3.2c1-3.5,1-7.1,0-10.6c-0.5-1.8-1.4-3.5-2.8-4.8
	c-2.2-1.9-5.4-1.9-7.6-0.1c-1.4,1.3-2.4,2.9-2.9,4.7C260.4,253.1,260.1,255,260.2,256.9L260.2,256.9z"/>
<path class="st5" d="M338.4,258.5c0,0.3-0.1,0.6-0.1,0.8v6.6c0,0.4,0,0.7,0.1,1.1c0,0.9,0.7,1.7,1.6,1.8c0.3,0.1,0.6,0.2,0.8,0.4
	c-0.2,0.2-0.3,0.3-0.5,0.3c-2.7,0-5.4,0-8.1-0.1c0,0-0.1-0.2-0.1-0.3c0.2-0.4,0.6-0.3,0.9-0.4c0.8-0.1,1.4-0.8,1.4-1.5
	c0.1-0.5,0.1-1,0.1-1.5c0-5.8,0-11.7,0-17.5c0-0.5,0-1-0.1-1.5c0-0.8-0.6-1.5-1.5-1.7c-0.3-0.1-0.7,0.1-0.9-0.5
	c0.2-0.1,0.3-0.1,0.5-0.2c3.6,0,7.2,0,10.8,0c1.3,0,2.5,0.3,3.6,0.9c3.3,1.7,4.6,5.7,3,9c-0.6,1.1-1.4,2-2.5,2.7
	c-1.7,1-3.5,1.5-5.5,1.5c-1,0-1.9,0-2.9,0C339,258.4,338.7,258.4,338.4,258.5z M338.4,245.5c-0.1,1-0.2,10.2-0.1,11.1
	c0.1,0.2,0.1,0.3,0.2,0.5c1.2,0,2.5,0,3.8,0c2,0,3.7-1.4,4.2-3.2c0.6-1.7,0.6-3.5,0-5.2c-0.3-0.7-0.6-1.3-1-1.8
	c-0.5-0.8-1.4-1.3-2.4-1.3C341.6,245.5,340.1,245.5,338.4,245.5L338.4,245.5z"/>
<path class="st2" d="M74,244.7c0.1-0.2,0.1-0.3,0.2-0.3c0.2-0.1,0.4-0.1,0.6-0.1c3.5,0,6.9,0,10.4,0c1.3,0,2.5,0.3,3.6,0.8
	c3.4,1.6,4.8,5.6,3.2,8.9c-0.6,1.2-1.4,2.2-2.5,2.8c-1.7,1-3.5,1.5-5.5,1.4c-1,0-1.9,0-2.9,0c-0.3,0-0.6,0-1,0.1c0,0.4,0,0.8,0,1.1
	c0,2.1,0,4.1,0,6.2c0,0.3,0,0.6,0,0.9c0.1,1.4,0.4,1.8,1.8,2.2c0.2,0.1,0.5,0.2,0.7,0.4c-0.2,0.2-0.3,0.3-0.5,0.3
	c-2.6,0-5.2,0-7.8,0c-0.1,0-0.3-0.1-0.3-0.2c0-0.1,0.1-0.2,0.2-0.4c0,0,0.1,0,0.1,0c0.6,0,1.2-0.3,1.6-0.8c0.3-0.6,0.5-1.2,0.5-1.9
	c0-0.3,0-0.6,0-0.9c0-5.6,0-11.2,0-16.7c0-0.6,0-1.1-0.1-1.6c0-1-0.7-1.9-1.7-2C74.5,244.8,74.2,244.8,74,244.7z M80.4,257.1
	c1.6,0.1,3.2,0,4.8-0.2c0.8-0.2,1.6-0.6,2.2-1.2c0.9-1,1.5-2.3,1.5-3.7c0.3-1.9-0.2-3.7-1.4-5.2c-0.5-0.7-1.3-1.1-2.2-1.2
	c-1.7-0.1-3.3,0-5,0.1c-0.1,0.1-0.1,0.3-0.1,0.4c0,3.5,0,7,0,10.5C80.2,256.7,80.3,256.9,80.4,257.1z"/>
<path class="st6" d="M495.9,244.4c1.3-0.2,15-0.2,16.3,0c0.3,2,0.3,4,0.1,6.1c-0.3,0.1-0.4-0.1-0.4-0.3c-0.2-0.7-0.4-1.4-0.7-2
	c-0.7-1.7-2.4-2.8-4.2-2.7h-4.2c-0.2,0-0.4,0.1-0.6,0.1c-0.3,3.2-0.3,6.5-0.1,9.7c0.3,0.1,0.6,0.1,0.8,0.1c1,0,2.1,0,3.2,0
	c0.5,0,1.1-0.1,1.6-0.3c0.7-0.2,1.3-0.7,1.6-1.3c0.2-0.3,0.3-0.7,0.5-1.1c0.2,0.2,0.3,0.2,0.3,0.3c0,2.1,0,4.2,0,6.3
	c0,0.1-0.1,0.2-0.3,0.5c-0.2-0.4-0.3-0.7-0.5-1c-0.4-1.1-1.3-2-2.5-2.1c-1.6-0.1-3.2-0.1-4.8-0.1c-0.2,1.3-0.2,10,0,11.5
	c0.3,0.1,0.5,0.1,0.8,0.2c1.3,0,2.6,0,3.9,0c2.2,0.1,4.3-1.2,5.2-3.2c0.2-0.5,0.5-1,0.7-1.5c0.1-0.1,0.2-0.2,0.3-0.3
	c0.1,0.1,0.2,0.2,0.2,0.2c-0.3,1.9-0.5,3.9-0.8,5.9c-0.3,0.1-0.6,0.1-0.9,0.1h-15c-0.2,0-0.4,0-0.6-0.1c-0.2-0.3-0.1-0.5,0.2-0.6
	l0.2,0c1.6-0.5,1.9-0.8,2-2.4c0-0.3,0-0.6,0-0.9c0-5.7,0-11.5,0-17.2c0-0.4,0-0.9,0-1.4c0-1-0.7-1.8-1.7-2c-0.2,0-0.4-0.1-0.6-0.2
	C495.9,244.8,495.9,244.5,495.9,244.4z"/>
<path class="st7" d="M51.4,253.8c0.6-0.8,3.8-6.3,4-7c0-0.1,0.1-0.2,0.1-0.3c0.2-0.9,0-1.4-0.9-1.5c-0.3-0.1-0.7-0.1-1-0.1
	c-0.1,0-0.2-0.2-0.3-0.2c0.1-0.1,0.2-0.2,0.2-0.2h7c0.2,0.3,0.1,0.5-0.2,0.6c-1.4,0.1-2.6,0.9-3.3,2.2c-1.7,2.7-3.3,5.4-5,8.2
	c0.3,0.5,0.5,1,0.8,1.5l3.2,5.6c0.6,1.1,1.2,2.2,1.9,3.3c0.4,0.6,0.8,1.3,1.2,1.9c0.5,0.7,1.2,1.2,2,1.3c0.2,0,0.4,0.2,0.7,0.5
	c-0.2,0.1-0.5,0.1-0.8,0.2c-2.7,0-5.3,0-8,0c-0.1,0-0.1-0.1-0.3-0.3c0.4-0.1,0.8-0.2,1.2-0.3c0.5-0.1,0.9-0.5,0.8-1
	c0-0.1,0-0.2-0.1-0.2c-0.1-0.3-0.2-0.6-0.3-0.8c-1.4-2.5-2.8-5-4.3-7.5c-0.1-0.1-0.2-0.2-0.4-0.3c-0.1,0.1-0.2,0.2-0.3,0.3
	c-1.2,2.1-2.4,4.3-3.6,6.4c-0.3,0.5-0.5,1.1-0.7,1.7c-0.2,0.5,0.1,1.1,0.7,1.2c0,0,0.1,0,0.1,0c0.3,0.1,0.6,0.1,0.9,0.2
	c0.2,0.1,0.3,0.2,0.5,0.3c-0.1,0.1-0.2,0.3-0.2,0.3c-2.3,0-4.5,0.1-6.8,0.1c-0.1,0-0.2-0.1-0.5-0.3c0.3-0.1,0.5-0.3,0.7-0.4
	c1.4-0.2,2.6-1,3.2-2.2c0.5-0.8,1-1.6,1.5-2.5l3.8-6.5c-0.1-0.3-0.2-0.5-0.3-0.8c-1.7-3-3.4-6-5.2-9c-0.2-0.4-0.5-0.8-0.7-1.1
	c-0.5-0.8-1.3-1.4-2.2-1.7c-0.2-0.1-0.5-0.1-0.5-0.4c0.1-0.1,0.1-0.2,0.2-0.2c2.9-0.1,5.7-0.1,8.6,0.1c0,0.1,0,0.4-0.1,0.4
	c-0.4,0.1-0.8,0.2-1.2,0.3c-0.4,0.1-0.7,0.5-0.6,0.9c0,0,0,0,0,0c0.1,0.4,0.2,0.9,0.4,1.3c1.2,2.1,2.5,4.2,3.7,6.4
	C51.2,253.7,51.3,253.8,51.4,253.8z"/>
<path class="st6" d="M121.7,269.5c-0.4,0-0.8,0-1.1,0h-14c-0.3,0-0.7,0-1-0.1c-0.1,0-0.2-0.2-0.2-0.3c0.2-0.4,0.5-0.4,0.8-0.4
	c0.9-0.1,1.5-0.9,1.6-1.8c0.1-0.4,0.1-0.8,0.1-1.2c0-5.9,0-11.9,0-17.8c0-0.1,0-0.2,0-0.3c-0.1-1.9-0.3-2.2-2.2-2.9
	c-0.1,0-0.1-0.2-0.2-0.3c0.1-0.1,0.2-0.2,0.2-0.2c2.1-0.1,15-0.1,16.1,0.1c0.2,2,0.2,4,0,6c-0.3,0.1-0.3-0.1-0.4-0.3
	c-0.2-0.6-0.4-1.2-0.7-1.8c-0.7-1.8-2.4-2.9-4.2-2.8h-4.1c-0.2,0-0.5,0-0.7,0.1c-0.2,3.2-0.2,6.5,0,9.7c0.2,0,0.5,0.1,0.7,0.1
	c1.1,0,2.1,0,3.2,0c1.7,0,3-0.6,3.6-2.4c0-0.1,0.1-0.2,0.1-0.3c0,0,0.1,0,0.2-0.1s0.2,0.2,0.2,0.3c0,2.1,0,4.2,0,6.3
	c0,0.1-0.1,0.2-0.2,0.3c-0.1-0.1-0.3-0.2-0.4-0.4c-0.5-2.1-2-2.8-4-2.7c-0.9,0-1.8,0-2.7,0c-0.3,0-0.6,0.1-0.9,0.1
	c-0.2,1.4-0.2,10.1,0,11.4c0.3,0.1,0.5,0.1,0.8,0.1c1.3,0,2.6,0,3.9,0c2.2,0.1,4.2-1.1,5.1-3.1c0.3-0.5,0.5-1.1,0.8-1.6
	c0.1-0.1,0.2-0.2,0.3-0.2C122.5,265.3,122.3,267.4,121.7,269.5z"/>
<path class="st7" d="M16,268.2c1.9,0,3.7,0,5.4,0c1.7-0.1,3.2-1,4.1-2.4c0.3-0.4,0.5-0.9,0.7-1.3l0.7-1.3c0.1,0.2,0.3,0.3,0.3,0.4
	c-0.3,1.8-0.5,3.7-0.8,5.5c0,0.1-0.1,0.2-0.2,0.2c-1,0.2-15.5,0.2-16.2,0c-0.1,0-0.1-0.1-0.2-0.3c0.2-0.1,0.5-0.2,0.8-0.3
	c0.9-0.1,1.6-0.8,1.6-1.7c0.1-0.5,0.1-1,0.1-1.5c0-5.8,0-11.6,0-17.3c0-0.6-0.1-1.2-0.2-1.8c-0.1-0.7-0.6-1.2-1.2-1.4
	c-0.3-0.1-0.8,0-1-0.4c0.1-0.4,0.4-0.3,0.6-0.3h15.7c0.2,1,0.3,2.1,0.2,3.2c0.1,1.1,0,2.2-0.2,3.3l-0.5-1.2
	c-0.2-0.7-0.5-1.3-0.8-1.9c-0.6-1.2-1.9-2.1-3.2-2.1c-1.8-0.1-3.6-0.1-5.4,0c-0.3,3.2-0.4,6.5-0.2,9.8c0.3,0.1,0.5,0.1,0.8,0.1
	c1,0,2,0,3,0c0.4,0,0.9,0,1.3-0.1c1-0.2,1.8-0.8,2.2-1.7c0.1-0.3,0.1-0.7,0.5-0.8c0.1,0.1,0.2,0.1,0.2,0.2c0,2.2,0,4.4,0,6.8
	c-0.2-0.1-0.4-0.2-0.5-0.3c-0.1-0.2-0.1-0.4-0.2-0.6c-0.4-1.4-1.6-2.3-3.1-2.2c-1.4-0.1-2.8,0-4.1,0c-0.1,0.1-0.1,0.1-0.2,0.2
	c0,0-0.1,0.1-0.1,0.1c0,3.5,0,6.9,0,10.4C16,267.6,16,267.8,16,268.2z"/>
<path class="st2" d="M408,243.7h0.9c0.1,0.3,0.3,0.6,0.4,0.9c2.6,6.9,5.2,13.8,7.9,20.7c0.2,0.6,0.5,1.2,0.8,1.8
	c0.4,0.9,1.2,1.5,2.2,1.7c0.2,0,0.4,0.2,0.7,0.4c-0.3,0.1-0.4,0.3-0.5,0.3c-2.9,0-5.8,0-8.7,0c-0.1,0-0.1-0.1-0.2-0.2
	c0.1-0.1,0.1-0.3,0.2-0.3c0.3-0.1,0.7-0.1,1-0.1c0.7,0,1.2-0.6,1.2-1.3c0-0.1,0-0.2-0.1-0.3c0-0.1-0.1-0.3-0.1-0.4
	c-0.6-2-1.4-4-2.1-5.9c-2.6-0.2-5.2-0.2-7.8,0c-0.1,0.2-0.2,0.5-0.3,0.8c-0.4,1.3-0.8,2.6-1.2,3.9c-0.1,0.4-0.2,0.9-0.3,1.3
	c-0.2,0.8,0.2,1.7,1.1,1.9c0.1,0,0.2,0.1,0.4,0.1c0.3,0,0.6,0,0.9,0.1c0.1,0,0.2,0.2,0.3,0.3c-0.1,0.1-0.1,0.2-0.2,0.2
	c-2.2,0-4.4,0-6.6,0c-0.1,0-0.2-0.1-0.4-0.2c0.1-0.1,0.2-0.4,0.3-0.4c1.9-0.1,2.7-1.5,3.3-3.1c1.1-3.3,2.2-6.6,3.2-9.9
	c1.2-3.7,2.4-7.4,3.7-11.1C407.8,244.4,407.9,244.1,408,243.7z M410.9,259.2c-1.2-3.2-2.3-6.5-3.6-9.9c-1.2,3.4-2.2,6.7-3.2,9.9
	C406.4,259.4,408.7,259.4,410.9,259.2L410.9,259.2z"/>
<path class="st2" d="M243.7,246.3c0,1.9,0,3.6,0,5.3c0,0.1,0,0.3-0.1,0.4c-0.3,0.1-0.4-0.1-0.5-0.3s-0.2-0.7-0.3-1
	c-0.5-1.6-1.5-3-2.8-4c-0.6-0.6-1.4-1-2.3-1.1c-1.1-0.2-2.3-0.2-3.4-0.2c-2.2,0.2-4.2,1.4-5.3,3.3c-0.9,1.3-1.5,2.8-1.8,4.4
	c-0.6,2.8-0.5,5.6,0.2,8.4c0.3,1.3,0.9,2.5,1.6,3.6c1,1.6,2.6,2.7,4.5,3.1c1.8,0.4,3.6,0.2,5.3-0.6c1.9-0.9,3.3-2.5,4-4.5
	c0.1-0.5,0.3-1.1,0.6-1.5c0.4,0.9,0.4,2.9,0.2,5.8c-0.3,0.2-0.7,0.4-1,0.6c-3.1,1.5-6.5,2-9.8,1.5c-5-0.8-8.1-3.7-9.5-8.5
	c-0.8-2.8-0.8-5.7,0.1-8.5c1.5-4.8,4.7-7.6,9.7-8.2c3.1-0.4,6.2,0.1,9,1.3C242.7,245.7,243.1,246,243.7,246.3z"/>
<path class="st2" d="M184.8,269.2c-0.3,0.1-0.5,0.1-0.8,0.2c-4.6,0.1-6.9,0.1-7.8-0.2c0.1-0.1,0.1-0.3,0.3-0.3s0.5-0.1,0.7-0.1
	c0.7-0.1,1.3-0.7,1.4-1.5c0.1-0.4,0.1-0.9,0.1-1.4c0-6.6,0-13.1,0-19.7c0-0.2,0-0.4-0.1-0.5c-0.3-0.1-0.6-0.1-0.8-0.1
	c-0.9,0-1.7,0-2.6,0c-1.3-0.1-2.6,0.6-3.2,1.8c-0.4,0.7-0.7,1.4-1,2.2c-0.2,0.5-0.4,0.9-0.6,1.4c0,0.1-0.2,0.2-0.3,0.2
	c-0.1-0.1-0.2-0.2-0.2-0.2c0-2.1,0.2-4.3,0.5-6.4c0,0,0.1-0.1,0.1-0.1c0,0,0.1,0,0.1-0.1h19.3c0.2,0,0.4,0,0.7,0.1
	c0.1,0.3,0.1,0.7,0.1,1c0.1,1.8,0.3,3.5,0.4,5.3c0,0.2-0.1,0.4-0.2,0.6c-0.4-0.6-0.7-1.2-0.9-1.9c-0.3-0.9-0.7-1.7-1.2-2.4
	c-0.5-0.8-1.4-1.3-2.4-1.4c-1.3-0.1-2.6,0-3.8,0c-0.3,0.2-0.4,0.6-0.3,0.9c0,6.4,0,12.9,0,19.3c0,0.5,0.1,1,0.1,1.5
	c0.1,0.8,0.7,1.4,1.4,1.5C184.2,268.8,184.6,268.7,184.8,269.2z"/>
<path class="st8" d="M384.1,244.3c0.5,4.1,0.5,5.6,0.2,6.8c-0.4-0.4-0.6-0.9-0.7-1.5c-0.3-1-0.8-1.9-1.3-2.7
	c-0.6-0.8-1.4-1.3-2.4-1.4c-0.1,0-0.2,0-0.3,0c-1.2,0-2.4,0-3.7,0c-0.1,0.3-0.1,0.6-0.2,0.9c0,6.5,0,13,0,19.4
	c0,0.5,0.1,0.9,0.1,1.4c0.1,0.8,0.7,1.5,1.5,1.6c0.3,0,0.6,0,0.7,0.5c-0.1,0.1-0.2,0.2-0.4,0.2c-2.7,0.2-5.4,0.1-8.1-0.2
	c0,0,0-0.1,0-0.1c0.1-0.4,0.5-0.3,0.7-0.4c0.9-0.1,1.6-0.8,1.6-1.7c0.1-0.4,0.1-0.8,0.1-1.2c0-6.4,0-12.9,0-19.3c0-0.3,0-0.6,0-0.9
	c-1.4-0.2-2.8-0.2-4.2-0.1c-0.8,0.1-1.5,0.6-2,1.2c-0.6,0.8-1.1,1.8-1.5,2.8c-0.2,0.6-0.4,1.2-0.8,1.7c-0.1-0.3-0.3-0.4-0.2-0.6
	c0.1-2.1,0.3-4.1,0.4-6.2c0.3-0.1,0.6-0.1,0.9-0.2h18.7C383.6,244.2,383.8,244.3,384.1,244.3z"/>
<path class="st7" d="M472,268.3c1.9,0,3.7,0,5.5,0c1.7,0,3.2-1,3.8-2.5c0.4-0.7,0.6-1.5,0.9-2.2c0.1-0.2,0.2-0.5,0.3-0.7
	c0.1-0.1,0.2-0.2,0.4-0.1c0.1,0,0.2,0.2,0.3,0.3c0,0.1,0,0.2,0,0.3c-0.3,2-0.6,4-0.9,6c-0.3,0.1-0.6,0.1-0.9,0.1h-14.9
	c-0.4-0.1-0.7-0.2-1.1-0.3c0.3-0.2,0.7-0.3,1-0.5c0.9-0.1,1.6-0.8,1.6-1.7c0.1-0.4,0.1-0.9,0.1-1.4c0-5.9,0-11.8,0-17.6
	c0-0.5-0.1-1-0.1-1.5c-0.1-0.8-0.6-1.4-1.4-1.6c-0.2-0.1-0.5-0.1-0.7-0.2c-0.1,0-0.1-0.1-0.1-0.2c0-0.1,0.1-0.2,0.1-0.2
	c0.1,0,0.3-0.1,0.4-0.1h7.4c0.2,0,0.3,0.1,0.5,0.1c0,0.2,0,0.4-0.1,0.4c-0.3,0.1-0.6,0.2-0.9,0.3c-0.8,0.2-1.3,0.8-1.4,1.6
	c0,0.3-0.1,0.7-0.1,1c0,6.6,0,13.2,0,19.7C472,267.7,472,267.9,472,268.3z"/>
<path class="st2" d="M203.1,260.8v-2.1c2.6-0.3,5.1-0.3,7.7,0c0.1,0.7,0.1,1.4,0,2.2C208.2,261.1,205.6,261,203.1,260.8z"/>
<path class="st9" d="M254.9,98.3c-0.2-1.3-0.2-69,0-70.8c0.3-0.1,0.6-0.1,0.8-0.1c9.5,0,18.9,0,28.3,0c4.8,0,9.4,1.6,13.1,4.5
	c2.6,2.1,4.8,4.7,6.5,7.7c1.9,3.3,3.2,6.8,3.9,10.6c1,5.4,1.3,10.9,0.7,16.3c-0.3,4.2-1.3,8.3-2.8,12.3c-1,2.5-2.2,4.8-3.8,7
	c-2.1,3.1-4.8,5.8-8,7.9c-2.7,1.7-5.7,3-8.9,3.7c-2.6,0.6-5.3,0.9-8.1,0.9c-6.8,0-13.6,0-20.4,0L254.9,98.3z"/>
<path class="st10" d="M439.5,268.1c-0.1-2.2-0.1-10.1,0-11.2c2-0.3,4.1-0.2,6.1,0.3c3,1,4.5,3.5,3.7,7.2c-0.4,2.3-2.5,3.9-4.8,3.8
	c-1.5,0-2.9,0-4.4,0C439.9,268.1,439.7,268.1,439.5,268.1z"/>
<path class="st11" d="M439.5,245.5c1.6,0,3.1,0,4.6,0c1.6,0,2.9,1.1,3.4,2.6c0.6,1.5,0.6,3.2-0.1,4.7c-0.6,1.5-2,2.5-3.6,2.6
	c-1.4,0.1-2.8,0-4.1,0l-0.2-0.2c0,0-0.1-0.1-0.1-0.1c0-3,0-5.9,0-8.9C439.4,246,439.4,245.8,439.5,245.5z"/>
<path class="st12" d="M141.4,256.3c-0.2-3.6-0.2-7.2,0-10.7c0.2,0,0.4-0.1,0.5-0.1h3.9c1.2,0,2.3,0.6,2.9,1.6c0.7,1.1,1.1,2.5,1,3.9
	c0,0.8-0.2,1.6-0.4,2.4c-0.6,1.9-2.4,3.1-4.4,3.1C143.8,256.3,142.6,256.4,141.4,256.3z"/>
<path class="st10" d="M260.2,256.8c0-1.9,0.2-3.7,0.7-5.5c0.5-1.8,1.5-3.4,2.9-4.7c2.2-1.8,5.4-1.7,7.6,0.1c1.3,1.3,2.3,3,2.8,4.8
	c1,3.5,1,7.1,0,10.6c-0.3,1.1-0.8,2.2-1.3,3.2c-1.4,2.6-4.5,3.8-7.2,2.8c-1.5-0.5-2.7-1.6-3.5-3c-1-1.8-1.7-3.9-1.8-6
	C260.2,258.4,260.2,257.6,260.2,256.8z"/>
<path class="st11" d="M338.5,245.5c1.6,0,3.2,0,4.7,0c1,0,1.9,0.5,2.4,1.3c0.4,0.6,0.7,1.2,1,1.8c0.6,1.7,0.6,3.5,0,5.2
	c-0.5,1.9-2.3,3.2-4.2,3.2c-1.2,0-2.5,0-3.8,0c-0.1-0.1-0.2-0.3-0.2-0.5C338.2,255.7,338.3,246.6,338.5,245.5z"/>
<path class="st13" d="M80.4,257.1c-0.1-0.2-0.1-0.3-0.2-0.5c0-3.5,0-7,0-10.5c0-0.1,0.1-0.3,0.1-0.4c1.7-0.1,3.3-0.2,5-0.1
	c0.8,0.1,1.6,0.6,2.2,1.2c1.1,1.5,1.6,3.4,1.4,5.2c-0.1,1.4-0.6,2.7-1.5,3.7c-0.6,0.6-1.3,1.1-2.2,1.2
	C83.6,257.1,82,257.2,80.4,257.1z"/>
<path class="st14" d="M410.9,259.2c-2.3,0.2-4.5,0.2-6.8,0c1-3.3,2-6.5,3.2-9.9C408.7,252.7,409.8,255.9,410.9,259.2z"/>
</svg>
